<?xml version="1.0" encoding="UTF-8"?>
<svg xmlns="http://www.w3.org/2000/svg" xmlns:xlink="http://www.w3.org/1999/xlink" width="48px" height="40px" viewBox="0 0 47 40" version="1.1">
<defs>
<clipPath id="clip1">
  <path d="M 0.171875 0.171875 L 36 0.171875 L 36 40 L 0.171875 40 Z M 0.171875 0.171875 "/>
</clipPath>
<linearGradient id="linear0" gradientUnits="userSpaceOnUse" x1="521.127" y1="305.742" x2="443.569" y2="498.867" gradientTransform="matrix(0.00000000000000001,0.17316,-0.170443,0.000000000000000011,102.486054,-79.532987)">
<stop offset="0" style="stop-color:rgb(21.960784%,46.666667%,75.686275%);stop-opacity:1;"/>
<stop offset="1" style="stop-color:rgb(34.901961%,59.215686%,87.45098%);stop-opacity:1;"/>
</linearGradient>
<clipPath id="clip2">
  <path d="M 26 0.171875 L 46.828125 0.171875 L 46.828125 40 L 26 40 Z M 26 0.171875 "/>
</clipPath>
<linearGradient id="linear1" gradientUnits="userSpaceOnUse" x1="551.382" y1="356.694" x2="681.368" y2="454.285" gradientTransform="matrix(0.00000000000000001,0.17316,-0.170443,0.000000000000000011,102.486054,-79.532987)">
<stop offset="0" style="stop-color:rgb(93.72549%,67.058824%,25.098039%);stop-opacity:1;"/>
<stop offset="1" style="stop-color:rgb(94.901961%,61.176471%,6.666667%);stop-opacity:1;"/>
</linearGradient>
<linearGradient id="linear2" gradientUnits="userSpaceOnUse" x1="645.776" y1="537.804" x2="631.851" y2="506.409" gradientTransform="matrix(0.00000000000000001,0.17316,-0.170443,0.000000000000000011,102.486054,-79.532987)">
<stop offset="0" style="stop-color:rgb(87.45098%,53.72549%,0%);stop-opacity:1;"/>
<stop offset="1" style="stop-color:rgb(94.901961%,61.176471%,6.666667%);stop-opacity:1;"/>
</linearGradient>
</defs>
<g id="surface1">
<g clip-path="url(#clip1)" clip-rule="nonzero">
<path style=" stroke:none;fill-rule:nonzero;fill:url(#linear0);" d="M 20.757812 0.421875 C 20.757812 0.421875 0.519531 1.816406 0.511719 8.742188 C 0.511719 8.742188 0.480469 37.828125 0.480469 37.828125 C 0.480469 39.042969 1.105469 39.6875 2.320312 39.6875 C 2.320312 39.6875 6 39.6875 6 39.6875 C 6 39.6875 6 18.988281 6 18.988281 C 6 16.734375 6.578125 16.046875 7.902344 17.105469 C 7.902344 17.105469 11.566406 20.964844 23.539062 21.242188 C 23.539062 21.242188 29.960938 21.242188 29.960938 21.242188 C 29.960938 21.242188 29.964844 32.191406 29.964844 32.191406 C 29.957031 33.445312 30.578125 34.074219 31.808594 34.0625 C 31.808594 34.0625 35.484375 34.074219 35.484375 34.074219 C 35.484375 34.074219 35.507812 17.257812 35.507812 17.257812 C 35.507812 17.257812 23.511719 17.257812 23.511719 17.257812 C 23.511719 17.257812 16.332031 17.410156 16.542969 12.5625 C 16.710938 8.609375 20.753906 8.152344 20.753906 8.152344 C 20.753906 8.152344 20.757812 0.421875 20.757812 0.421875 Z M 20.757812 0.421875 "/>
</g>
<g clip-path="url(#clip2)" clip-rule="nonzero">
<path style=" stroke:none;fill-rule:nonzero;fill:url(#linear1);" d="M 26.300781 6.90625 C 26.300781 6.90625 26.304688 1.296875 26.304688 1.296875 C 26.300781 0.394531 26.941406 0.394531 27.519531 0.476562 C 31.34375 1.011719 46.578125 2.660156 46.601562 8.777344 C 46.601562 8.777344 46.589844 39.683594 46.589844 39.683594 C 46.589844 39.683594 42.886719 39.640625 42.886719 39.640625 C 41.679688 39.65625 41.054688 39.035156 41.074219 37.785156 C 41.074219 37.785156 41.070312 11.578125 41.070312 11.578125 C 41.070312 11.578125 31.246094 11.585938 31.246094 11.585938 C 30.390625 11.699219 30.277344 11.082031 30.277344 11.082031 C 30.277344 11.082031 30.046875 10.46875 29.773438 10.085938 C 29.078125 9.097656 28.015625 8.589844 27.207031 8.335938 C 26.210938 8.027344 26.296875 7.859375 26.300781 6.90625 Z M 26.300781 6.90625 "/>
</g>
<path style=" stroke:none;fill-rule:nonzero;fill:url(#linear2);" d="M 11.59375 24.730469 C 11.59375 24.730469 11.566406 32.175781 11.566406 32.175781 C 11.566406 33.425781 12.179688 34.046875 13.441406 34.046875 C 13.441406 34.046875 17.105469 34.027344 17.105469 34.027344 C 17.105469 34.027344 17.105469 26.335938 17.105469 26.335938 C 17.105469 26.335938 15.253906 25.894531 14.664062 25.738281 C 13.851562 25.523438 11.59375 24.730469 11.59375 24.730469 Z M 11.59375 24.730469 "/>
</g>
</svg>
